<?xml version="1.0" encoding="UTF-8"?>
<svg xmlns="http://www.w3.org/2000/svg" viewBox="0 0 512 512" width="512" height="512"><g id="FLAT"><rect x="64" y="256" width="384" height="24" style="fill:#bebebe"/><path d="M480,497.13135l15.83984-2.2627-32-224A8.00031,8.00031,0,0,0,455.91992,264h-32A8.00033,8.00033,0,0,0,416,270.86865l-32,224,15.83984,2.2627L408.00146,440h63.83692ZM410.28711,424,430.8584,280h18.123l20.57128,144Z" style="fill:#bebebe"/><path d="M408,80l-12.87427,32.18549a15.99985,15.99985,0,0,0,1.543,14.81744L424,168l40-8V80Z" style="fill:#fcd6e0"/><path d="M408,24l24,32,14.78823,2.1126A48,48,0,0,1,488,105.63018v10.48757a48,48,0,0,1-14.05887,33.94112L464,160,440,96l-5.26173-.87695a40,40,0,0,1-32.22974-49.15719Z" style="fill:#f4c36e"/><path d="M474.93262,181.865,464,160l-40,8-.5686.56854a80.00091,80.00091,0,0,0-22.90821,47.4314L400,280h80V203.33124A47.9999,47.9999,0,0,0,474.93262,181.865Z" style="fill:#31c292"/><path d="M112.08008,497.13135l15.83984-2.2627-32-224A8.00031,8.00031,0,0,0,88,264H56a8.00031,8.00031,0,0,0-7.91992,6.86865l-32,224,15.83984,2.2627L40.08154,440h63.83692ZM42.36719,424,62.93848,280h18.123l20.57129,144Z" style="fill:#bebebe"/><path d="M32,280h80V211.2756a80,80,0,0,0-8.27-35.42324L88,144H32Z" style="fill:#db9cb3"/><path d="M80,152l31.173-24.47189a16,16,0,0,0,5.3177-17.5887L104,72H64v80Z" style="fill:#fcd6e0"/><path d="M400,280l-67.91309,43.21741a48.0004,48.0004,0,0,0-22.0642,36.50958L304,432l-6.50342,4.8775a48.00026,48.00026,0,0,0-17.76684,50.04169L280,488l72-32,8-96,79.27319-16.98712a47.99984,47.99984,0,0,0,37.46021-40.1463L480,280Z" style="fill:#5791d6"/><rect x="248" y="16" width="16" height="40" style="fill:#dfdfdf"/><path d="M304.8083,89.92332,280,80l-8-24H240l-8,24-24.8083,9.92332a32,32,0,0,0-19.16006,21.95011L184,128H328l-4.03164-16.12657A32,32,0,0,0,304.8083,89.92332Z" style="fill:#31c292"/><path d="M72.00005,24H72A48,48,0,0,0,24,72V192l10.0482,2.512A39.96428,39.96428,0,0,0,72,184l0,0a39.96428,39.96428,0,0,0,10.512-37.95178L68.97014,91.88057A16,16,0,0,1,84.49242,72H120V72A48,48,0,0,0,72.00005,24Z" style="fill:#f4c36e"/><path d="M214.50342,436.8775,208,432l-6.02271-72.273a48.0004,48.0004,0,0,0-22.0642-36.50958L112,280H32l3.2666,22.86658a47.99984,47.99984,0,0,0,37.46021,40.1463L152,360l8,96,72,32,.27026-1.08081A48.00026,48.00026,0,0,0,214.50342,436.8775Z" style="fill:#5791d6"/><path d="M160,456l72,32,.27026-1.08081a48.00026,48.00026,0,0,0-17.76684-50.04169L208,432l-51.21948-14.63416Z" style="fill:#6e6e6e"/><path d="M80,224l-7.0737-10.61055a18.22887,18.22887,0,0,0-23.31953-6.19284l0,0a18.22885,18.22885,0,0,0-7.47892,25.68306l9.21134,15.35224A16,16,0,0,0,65.05905,256H144V224Z" style="fill:#fcd6e0"/><path d="M279.72974,486.91919,280,488l72-32,3.21948-38.63416L304,432l-6.50342,4.8775A48.00026,48.00026,0,0,0,279.72974,486.91919Z" style="fill:#6e6e6e"/><path d="M432,224l7.0737-10.61055a18.22887,18.22887,0,0,1,23.31953-6.19284l0,0a18.22885,18.22885,0,0,1,7.47892,25.68306l-9.21134,15.35224A16,16,0,0,1,446.941,256H368V224Z" style="fill:#fcd6e0"/><path d="M266.88745,160H346.446a16.00007,16.00007,0,0,1,15.78223,13.36963L376,256H264l-12.895-77.36963A16.00024,16.00024,0,0,1,266.88745,160Z" style="fill:#ededed"/><rect x="304" y="200" width="16" height="16" style="fill:#dfdfdf"/><path d="M245.11255,160H165.554a16.00007,16.00007,0,0,0-15.78223,13.36963L136,256H248l12.895-77.36963A16.00024,16.00024,0,0,0,245.11255,160Z" style="fill:#dfdfdf"/><rect x="192" y="200" width="16" height="16" style="fill:#f4f4f4"/></g></svg>
