<?xml version="1.0" standalone="no"?>
<!DOCTYPE svg PUBLIC "-//W3C//DTD SVG 20010904//EN"
 "http://www.w3.org/TR/2001/REC-SVG-20010904/DTD/svg10.dtd">
<svg version="1.0" xmlns="http://www.w3.org/2000/svg"
 width="700.000000pt" height="700.000000pt" viewBox="0 0 700.000000 700.000000"
 preserveAspectRatio="xMidYMid meet">
<metadata>
Created by potrace 1.14, written by Peter Selinger 2001-2017
</metadata>
<g transform="translate(0.000000,700.000000) scale(0.100000,-0.100000)"
fill="#000000" stroke="none">
<path d="M3278 6996 c-1 -2 -42 -6 -89 -10 -47 -4 -95 -8 -105 -10 -10 -2 -45
-7 -78 -11 -101 -12 -215 -35 -380 -76 -296 -75 -599 -199 -881 -362 -103 -60
-265 -165 -315 -204 -8 -6 -51 -40 -95 -74 -426 -331 -813 -825 -1020 -1299
-25 -58 -50 -114 -55 -125 -45 -93 -150 -427 -176 -560 -2 -11 -10 -54 -19
-95 -29 -147 -36 -200 -52 -370 -15 -164 -8 -592 12 -711 2 -13 6 -46 9 -74
21 -182 109 -547 165 -680 5 -11 25 -65 46 -120 63 -166 249 -531 312 -610 4
-6 34 -49 65 -95 171 -256 432 -534 708 -755 92 -74 370 -265 386 -265 4 0 15
-6 23 -14 46 -40 413 -212 571 -268 83 -29 268 -87 293 -92 12 -2 60 -13 107
-24 109 -27 200 -44 299 -58 25 -3 57 -8 71 -10 163 -25 682 -25 842 1 13 2
46 7 73 10 71 10 87 13 115 18 14 3 43 8 65 12 325 59 741 212 1039 384 49 28
91 51 93 51 10 0 268 180 353 247 152 119 324 280 450 422 36 41 70 79 76 85
65 68 263 353 352 508 46 79 172 331 172 342 0 3 11 29 24 58 57 127 151 421
182 573 17 81 54 301 59 350 4 33 9 71 11 85 9 46 11 524 4 605 -15 153 -21
210 -25 225 -2 8 -7 35 -10 60 -17 129 -80 384 -136 552 -349 1038 -1164 1854
-2204 2206 -167 56 -419 119 -555 137 -19 3 -46 7 -60 10 -13 2 -52 7 -86 11
-33 3 -74 8 -90 10 -33 5 -540 14 -546 10z m-893 -928 c53 -134 103 -256 110
-273 27 -63 275 -690 275 -697 0 -4 -33 -23 -72 -43 -159 -81 -357 -230 -477
-361 -112 -123 -232 -295 -289 -416 -12 -27 -25 -48 -30 -48 -4 0 -278 109
-610 241 -564 226 -602 243 -596 263 11 36 138 276 193 366 315 507 743 895
1276 1156 61 29 113 54 116 54 4 0 51 -109 104 -242z m2497 164 c345 -176 670
-426 921 -712 91 -104 245 -316 322 -443 80 -135 191 -355 182 -363 -3 -3
-259 -107 -569 -230 -309 -124 -577 -232 -595 -240 -17 -8 -36 -14 -41 -14 -6
0 -27 33 -47 73 -161 315 -437 591 -752 751 -40 21 -73 41 -73 46 0 5 7 24 15
42 10 24 338 844 423 1058 32 81 46 110 53 110 4 0 77 -35 161 -78z m-1119
-1446 c261 -58 475 -173 657 -356 104 -104 109 -110 167 -196 104 -154 183
-352 210 -526 10 -68 10 -348 0 -413 -43 -270 -170 -517 -367 -716 -167 -168
-352 -279 -565 -339 -93 -26 -104 -28 -227 -45 -42 -6 -233 -6 -276 0 -97 13
-122 18 -176 31 -237 61 -438 175 -611 349 -255 254 -386 571 -385 925 0 131
4 162 36 316 23 114 111 308 198 434 65 97 230 261 327 327 163 111 365 193
539 218 25 4 47 8 49 10 2 2 80 3 175 1 116 -2 196 -8 249 -20z m-1817 -2088
c155 -309 440 -595 745 -748 43 -22 79 -44 79 -48 0 -10 -476 -1202 -483
-1209 -7 -7 -193 83 -316 154 -86 50 -278 176 -327 216 -322 260 -516 471
-720 782 -66 101 -234 413 -234 435 0 8 27 20 380 160 168 66 314 125 325 129
11 5 27 12 35 15 8 3 114 45 235 95 121 49 226 89 232 90 7 1 29 -32 49 -71z
m3758 -167 c329 -132 601 -242 604 -245 7 -8 -127 -273 -192 -379 -278 -450
-656 -815 -1112 -1075 -110 -63 -284 -146 -290 -139 -6 6 -484 1199 -484 1208
0 4 33 24 73 44 86 45 244 148 307 201 88 75 227 220 288 302 34 45 62 84 62
87 0 2 13 23 29 47 16 24 45 76 66 116 20 39 40 72 43 72 4 0 277 -108 606
-239z"/>
</g>
</svg>
